<svg xmlns="http://www.w3.org/2000/svg" viewBox="0 0 643.262 79.536" aria-hidden="true"><path fill="#E20074" d="M272.893,4.834c-18.561,0-28.992,13.544-28.992,35.014c0,21.468,9.83,35.012,29.292,35.012c16.955,0,26.883-10.935,26.883-33.108v-3.708h-26.079v11.638h12.238c-1.105,8.931-5.921,12.238-13.044,12.238c-10.132,0-15.248-7.625-15.248-22.071c0-14.45,5.421-22.07,14.949-22.07c5.916,0,10.235,3.209,11.738,8.225h14.447C297.17,13.463,287.337,4.834,272.893,4.834 M643.262,6.34h-14.043l-14.345,46.952h-0.605L599.926,6.34h-13.944l21.769,67.017h13.646L643.262,6.34z M581.235,6.34h-47.853v12.54h17.157v54.478h13.543V18.879h17.152V6.34z M499.175,6.34h-13.54l-22.876,67.017h13.744l4.215-12.941h23.271l4.318,12.941h13.742L499.175,6.34z M484.927,47.774l7.128-21.772h0.6l7.224,21.772H484.927z M467.595,6.34H419.74v12.54h17.162v54.478h13.541V18.879h17.151V6.34z M412.371,6.34h-13.443v42.136h-0.6L374.251,6.34h-13.74v67.017h13.538V31.419h0.604l23.977,41.938h13.742V6.34z M349.283,6.34H309.86v67.017h39.423V60.818h-25.885V45.575h24.882V33.023h-24.882V18.879h25.881L349.283,6.34z M219.615,6.34h-13.543l-22.876,67.017h13.745l4.21-12.941h23.278l4.312,12.941h13.745L219.615,6.34z M205.367,47.774l7.122-21.772h0.603l7.225,21.772H205.367z M176.268,6.34h-12.44l-19.866,37.117h-0.602L123.397,6.34h-12.439v67.017H124.5V35.533h0.603l16.352,29.499h4.315l16.452-29.499h0.601v37.823h13.444V6.34z"/><g><clipPath id="magenta-icon"><path d="M26.343,79.536c-1.86,0-4.145-1.316-5.075-2.929L1.691,42.699c-0.93-1.612-0.93-4.248,0-5.86L21.269,2.93C22.198,1.32,24.483,0,26.343,0h39.154c1.86,0,4.145,1.32,5.074,2.93l19.578,33.909c0.93,1.612,0.93,4.248,0,5.86L70.571,76.607c-0.93,1.612-3.214,2.929-5.074,2.929H26.343z"/></clipPath><polygon clip-path="url(#magenta-icon)" fill="#E10073" points="31.305,14.46 75.181,39.789 31.305,65.124"/><polygon clip-path="url(#magenta-icon)" fill="#FDF3F8" points="31.305,14.46 68.879,0 75.181,39.789"/><polygon clip-path="url(#magenta-icon)" fill="#F29DC9" points="75.181,39.789 68.879,79.536 31.305,65.124"/><polygon clip-path="url(#magenta-icon)" fill="#FDF3F8" points="31.305,65.124 0,39.77 31.305,14.46"/><polygon clip-path="url(#magenta-icon)" fill="#EB56A1" points="31.305,14.46 22.96,0 68.879,0"/><polygon clip-path="url(#magenta-icon)" fill="#F29DC9" points="0,39.77 22.96,0 31.305,14.46"/><polygon clip-path="url(#magenta-icon)" fill="#F29DC9" points="75.181,39.789 68.879,0 91.84,39.77"/><polygon clip-path="url(#magenta-icon)" fill="#EB56A1" points="68.879,79.536 75.181,39.789 91.84,39.77"/><polygon clip-path="url(#magenta-icon)" fill="#EB56A1" points="22.96,79.536 31.305,65.124 68.879,79.536"/><polygon clip-path="url(#magenta-icon)" fill="#F29DC9" points="22.96,79.536 0,39.77 31.305,65.124"/></g></svg>